<?xml version="1.0" encoding="UTF-8"?>
<svg version="1.1" xmlns="http://www.w3.org/2000/svg" width="603" height="603">
<path d="M0 0 C198.99 0 397.98 0 603 0 C603 198.99 603 397.98 603 603 C404.01 603 205.02 603 0 603 C0 404.01 0 205.02 0 0 Z " fill="#051A04" transform="translate(0,0)"/>
<path d="M0 0 C2.05876931 -0.00965086 4.116516 -0.04066047 6.17504883 -0.07226562 C21.51604504 -0.1324559 21.51604504 -0.1324559 27.09765625 4.71972656 C28.39575195 6.24023438 28.39575195 6.24023438 28.39575195 8.24023438 C29.13825195 8.4903125 29.88075195 8.74039063 30.64575195 8.99804688 C33.62129546 10.3421134 35.17805863 11.74552175 37.39575195 14.11523438 C39.53248848 16.3518184 41.45676996 18.2848817 43.95825195 20.11523438 C49.05358187 24.55731687 52.96617505 30.38209131 55.08325195 36.80273438 C55.95699472 40.29893606 55.95699472 40.29893606 58.22387695 41.07226562 C60.90846141 41.27988637 62.1237417 40.66968134 64.45825195 39.36523438 C70.75377743 35.90934131 76.26676118 35.17632181 83.39575195 36.24023438 C86.19982446 37.19108904 88.81567885 38.40961737 91.45825195 39.74023438 C92.08175537 40.05404053 92.70525879 40.36784668 93.34765625 40.69116211 C96.42632197 42.34408643 99.1550719 44.04040106 101.8527832 46.28027344 C109.32195818 52.41449718 114.74463627 53.29084085 124.27075195 52.99023438 C137.17692814 52.74992222 148.00354927 55.02182704 159.52075195 60.92773438 C160.19106445 61.26877197 160.86137695 61.60980957 161.55200195 61.96118164 C176.86211879 70.03968797 190.81726621 85.00176167 197.39575195 101.24023438 C197.39575195 102.56023437 197.39575195 103.88023437 197.39575195 105.24023438 C198.05575195 105.24023438 198.71575195 105.24023438 199.39575195 105.24023438 C204.40389823 128.79044606 203.75569124 151.27478411 191.42700195 172.65429688 C179.1343694 191.31593832 161.6991441 204.38502053 139.75195312 209.63818359 C133.76804602 210.71160433 127.83463865 210.71247539 121.77075195 210.67773438 C120.52551758 210.69771484 119.2802832 210.71769531 117.99731445 210.73828125 C110.1914146 210.73416421 104.40150788 209.60599181 97.39575195 206.24023438 C95.73388165 205.60259038 94.06761661 204.97619374 92.39575195 204.36523438 C74.78338827 197.26525026 62.62701261 184.66141685 53.02075195 168.61523438 C52.60374023 167.92308838 52.18672852 167.23094238 51.75708008 166.51782227 C45.89306955 156.39570784 44.83167305 146.97382517 44.33325195 135.42773438 C43.96717014 117.54744108 43.96717014 117.54744108 38.52075195 100.80273438 C38.02833008 99.85527344 37.5359082 98.9078125 37.02856445 97.93164062 C35.34802187 95.16155966 33.45219318 92.73947041 31.39575195 90.24023438 C28.72928222 85.6691434 29.15365746 81.23431087 30.39575195 76.24023438 C31.4309082 74.24414063 31.4309082 74.24414063 32.58325195 72.42773438 C33.18137695 71.37585938 33.77950195 70.32398438 34.39575195 69.24023438 C32.98442795 65.08977265 29.77721084 62.20385317 26.85668945 59.04492188 C25.39575195 57.24023438 25.39575195 57.24023438 25.39575195 55.24023438 C24.80117188 54.97742676 24.2065918 54.71461914 23.59399414 54.44384766 C21.28983206 53.18223959 19.96560634 51.93191548 18.22387695 49.98242188 C17.6412207 49.35722656 17.05856445 48.73203125 16.45825195 48.08789062 C15.25312534 46.77627653 14.06024503 45.45330066 12.88012695 44.11914062 C10.03088006 41.10118832 7.72677446 38.78143619 3.4777832 38.31054688 C-2.18847271 38.84882064 -5.52089363 43.27433663 -9.16674805 47.24023438 C-9.88282227 47.98402344 -10.59889648 48.7278125 -11.33666992 49.49414062 C-15.40949512 53.75596864 -19.32450313 58.1477765 -23.17431641 62.61132812 C-24.27237709 63.86218366 -25.42730777 65.06329409 -26.60424805 66.24023438 C-26.37959707 69.60999899 -25.90767104 71.77903142 -24.04174805 74.61523438 C-22.08426256 78.18977308 -21.95294873 81.30316659 -22.60424805 85.24023438 C-24.21350557 89.84071069 -26.89996902 93.70350814 -29.66674805 97.67773438 C-34.53053478 104.85059158 -36.53872127 112.57431812 -36.60424805 121.24023438 C-36.27424805 121.90023437 -35.94424805 122.56023437 -35.60424805 123.24023438 C-33.83660443 146.48040127 -42.27583686 167.92705425 -57.1862793 185.63476562 C-70.93422312 200.44878586 -90.29476232 209.57005166 -110.4128418 210.52539062 C-133.61138348 211.16547474 -151.11398554 205.97496868 -168.60424805 190.24023438 C-169.23588867 189.67820312 -169.8675293 189.11617187 -170.51831055 188.53710938 C-182.62455694 177.12417225 -190.54005011 161.45869823 -193.1315918 145.15429688 C-193.44387608 142.31244389 -193.44387608 142.31244389 -194.60424805 140.24023438 C-196.16396572 117.10016072 -189.8681313 96.01324912 -174.60424805 78.24023438 C-172.08079417 75.69671327 -169.41489714 73.45746428 -166.60424805 71.24023438 C-165.64325195 70.39912109 -165.64325195 70.39912109 -164.6628418 69.54101562 C-150.8113252 57.84476347 -134.99923324 53.35167722 -117.15014648 53.04589844 C-107.30673895 52.85831093 -100.94203976 52.43097615 -93.60424805 45.24023438 C-85.47554496 38.51035209 -78.36218033 35.59419613 -67.66674805 35.79882812 C-63.32911166 36.42402317 -59.89572309 38.20177183 -56.0300293 40.19335938 C-52.91017855 41.53976839 -50.78827007 41.35894482 -47.60424805 40.24023438 C-47.66999023 39.35464844 -47.73573242 38.4690625 -47.8034668 37.55664062 C-47.30129554 29.1969661 -38.63565544 22.01581108 -32.97924805 16.30273438 C-32.1725769 15.48760376 -32.1725769 15.48760376 -31.34960938 14.65600586 C-28.00590992 11.37262693 -24.5548642 8.7922544 -20.60424805 6.24023438 C-19.27393555 4.90992188 -19.27393555 4.90992188 -17.91674805 3.55273438 C-13.09036843 -1.27364524 -6.41843899 0.01819328 0 0 Z " fill="#24C757" transform="translate(297.604248046875,196.759765625)"/>
<path d="M0 0 C0.78753662 0.00829834 1.57507324 0.01659668 2.38647461 0.02514648 C14.39397457 0.37138635 22.61633758 5.06506225 31.125 13.31640625 C39.87408302 22.65001852 42.62532357 32.08501352 42.39453125 44.6171875 C41.78436312 55.87651639 36.5341078 65.79012145 28.1875 73.375 C18.13574992 81.48625779 7.28429683 84.2032683 -5.59375 83.2265625 C-16.53719499 81.39111128 -25.98041858 75.66680978 -32.7578125 66.9296875 C-40.35073115 55.77858103 -42.12970295 44.65807742 -40.25 31.4375 C-37.94724052 21.29247571 -30.38502006 12.13627531 -22.03125 6.1640625 C-14.90352236 1.85502716 -8.21813745 -0.11238327 0 0 Z " fill="#061E06" transform="translate(420.8125,286.5625)"/>
<path d="M0 0 C9.94671818 6.06793886 17.77495756 13.41188373 21.64453125 24.61328125 C24.59184034 37.74220357 22.95038992 49.88543813 15.95703125 61.30078125 C10.05851803 69.54395348 2.44469489 75.73889697 -7.35546875 78.61328125 C-23.01590842 81.13755148 -33.63866435 78.15343806 -46.60546875 69.42578125 C-54.28710791 61.56955939 -59.65935734 51.79356171 -59.82397461 40.71240234 C-59.81374268 39.91656738 -59.80351074 39.12073242 -59.79296875 38.30078125 C-59.78467041 37.46627441 -59.77637207 36.63176758 -59.76782227 35.77197266 C-59.43875775 23.71251927 -54.9986909 15.49152306 -46.69921875 6.8984375 C-34.35164213 -4.54636819 -15.16270236 -7.52833474 0 0 Z " fill="#051803" transform="translate(201.35546875,290.38671875)"/>
</svg>
