<?xml version="1.0" standalone="no"?>
<!DOCTYPE svg PUBLIC "-//W3C//DTD SVG 20010904//EN"
 "http://www.w3.org/TR/2001/REC-SVG-20010904/DTD/svg10.dtd">
<svg version="1.0" xmlns="http://www.w3.org/2000/svg"
 width="603.000000pt" height="603.000000pt" viewBox="0 0 603.000000 603.000000"
 preserveAspectRatio="xMidYMid meet">

<g transform="translate(0.000000,603.000000) scale(0.100000,-0.100000)"
fill="#000000" stroke="none">
<path d="M0 3015 l0 -3015 3015 0 3015 0 0 3015 0 3015 -3015 0 -3015 0 0
-3015z m3170 1035 c19 -6 49 -23 65 -40 17 -16 69 -64 117 -106 86 -74 168
-179 168 -214 0 -9 9 -25 20 -35 18 -17 22 -16 85 9 128 51 210 34 382 -80
l82 -55 138 -3 c155 -4 221 -19 339 -79 152 -76 278 -208 358 -371 54 -112 68
-177 69 -326 3 -375 -248 -686 -621 -771 -224 -51 -473 10 -659 161 -69 55
-140 139 -180 209 -14 25 -36 62 -49 81 -39 60 -55 149 -58 319 -4 187 -25
266 -99 374 -58 84 -63 136 -21 211 l26 46 -52 63 c-29 34 -94 101 -144 149
-124 119 -129 119 -256 -7 -52 -52 -104 -105 -115 -118 -11 -13 -32 -38 -48
-54 l-27 -29 31 -62 c30 -57 31 -64 20 -107 -6 -25 -31 -75 -56 -111 -65 -95
-79 -150 -79 -329 -1 -114 -6 -167 -20 -219 -37 -137 -99 -249 -195 -349 -132
-139 -283 -214 -481 -238 -87 -11 -113 -11 -217 6 -97 15 -132 25 -205 62
-239 120 -387 317 -439 583 -22 114 -22 116 -4 225 21 126 39 184 86 273 95
178 268 320 464 382 52 16 106 23 209 27 l139 6 81 55 c44 30 91 64 104 76 19
17 36 20 125 21 90 0 108 -3 153 -25 46 -23 54 -24 73 -12 11 8 21 25 21 37 0
21 19 53 72 126 13 17 59 62 103 100 44 38 94 83 111 100 17 17 46 34 65 39
50 12 278 12 319 0z"/>
<path d="M1678 3136 c-233 -96 -332 -363 -217 -588 33 -65 120 -145 196 -180
61 -29 78 -32 169 -32 99 -1 102 0 187 42 99 49 143 93 192 194 89 183 28 403
-144 522 -99 69 -271 88 -383 42z"/>
<path d="M4067 3136 c-150 -63 -236 -168 -262 -321 -13 -80 0 -178 34 -251 34
-72 115 -150 199 -191 73 -36 80 -38 176 -38 93 0 107 3 168 32 193 91 291
299 234 496 -20 69 -82 164 -134 205 -80 64 -146 87 -257 90 -87 2 -107 -1
-158 -22z"/>
</g>
</svg>
